<svg width="36" height="36" viewBox="0 0 36 36" fill="none" xmlns="http://www.w3.org/2000/svg">
<path d="M34.4531 15.5588C34.2443 15.2693 33.9696 15.0336 33.6518 14.8712C33.3339 14.7089 32.9819 14.6245 32.625 14.625H30.375V12.375C30.375 11.7783 30.1379 11.206 29.716 10.784C29.294 10.3621 28.7217 10.125 28.125 10.125H18.3755L14.4759 7.2C14.0858 6.90916 13.6125 6.75141 13.1259 6.75H5.625C5.02826 6.75 4.45597 6.98705 4.03401 7.40901C3.61205 7.83097 3.375 8.40326 3.375 9V29.25C3.375 29.5484 3.49353 29.8345 3.7045 30.0455C3.91548 30.2565 4.20163 30.375 4.5 30.375H29.6859C29.9221 30.375 30.1522 30.3007 30.3438 30.1627C30.5353 30.0246 30.6786 29.8298 30.7533 29.6058L34.7597 17.5866C34.8724 17.2484 34.9033 16.8883 34.85 16.5358C34.7967 16.1834 34.6607 15.8485 34.4531 15.5588ZM13.1259 9L17.0255 11.925C17.4155 12.216 17.8888 12.3738 18.3755 12.375H28.125V14.625H9.81141C9.33915 14.625 8.87886 14.7735 8.49573 15.0496C8.1126 15.3258 7.82607 15.7154 7.67672 16.1634L5.625 22.3172V9H13.1259ZM28.8759 28.125H6.06094L9.81141 16.875H32.625L28.8759 28.125Z" fill="#DD5519"/>
</svg>
