<svg width="360" height="680" viewBox="0 0 360 680" fill="none" xmlns="http://www.w3.org/2000/svg">
<g clip-path="url(#clip0_205_9281)">
<circle cx="9.5" cy="1.5" r="1.5" fill="#FDF8F5" fill-opacity="0.4"/>
<circle cx="32.5" cy="1.5" r="1.5" fill="#FDF8F5" fill-opacity="0.4"/>
<circle cx="55.5" cy="1.5" r="1.5" fill="#FDF8F5" fill-opacity="0.4"/>
<circle cx="78.5" cy="1.5" r="1.5" fill="#FDF8F5" fill-opacity="0.4"/>
<circle cx="101.5" cy="1.5" r="1.5" fill="#FDF8F5" fill-opacity="0.4"/>
<circle cx="124.5" cy="1.5" r="1.5" fill="#FDF8F5" fill-opacity="0.4"/>
<circle cx="147.5" cy="1.5" r="1.5" fill="#FDF8F5" fill-opacity="0.4"/>
<circle cx="170.5" cy="1.5" r="1.5" fill="#FDF8F5" fill-opacity="0.4"/>
<circle cx="193.5" cy="1.5" r="1.5" fill="#FDF8F5" fill-opacity="0.4"/>
<circle cx="216.5" cy="1.5" r="1.5" fill="#FDF8F5" fill-opacity="0.4"/>
<circle cx="239.5" cy="1.5" r="1.5" fill="#FDF8F5" fill-opacity="0.4"/>
<circle cx="262.5" cy="1.5" r="1.5" fill="#FDF8F5" fill-opacity="0.4"/>
<circle cx="285.5" cy="1.5" r="1.5" fill="#FDF8F5" fill-opacity="0.4"/>
<circle cx="308.5" cy="1.5" r="1.5" fill="#FDF8F5" fill-opacity="0.4"/>
<circle cx="331.5" cy="1.5" r="1.5" fill="#FDF8F5" fill-opacity="0.4"/>
<circle cx="354.5" cy="1.5" r="1.5" fill="#FDF8F5" fill-opacity="0.4"/>
<circle cx="9.5" cy="24.5" r="1.5" fill="#FDF8F5" fill-opacity="0.4"/>
<circle cx="32.5" cy="24.5" r="1.5" fill="#FDF8F5" fill-opacity="0.4"/>
<circle cx="55.5" cy="24.5" r="1.5" fill="#FDF8F5" fill-opacity="0.4"/>
<circle cx="78.5" cy="24.5" r="1.5" fill="#FDF8F5" fill-opacity="0.4"/>
<circle cx="101.5" cy="24.5" r="1.5" fill="#FDF8F5" fill-opacity="0.4"/>
<circle cx="124.5" cy="24.5" r="1.5" fill="#FDF8F5" fill-opacity="0.4"/>
<circle cx="147.5" cy="24.5" r="1.5" fill="#FDF8F5" fill-opacity="0.4"/>
<circle cx="170.5" cy="24.5" r="1.5" fill="#FDF8F5" fill-opacity="0.4"/>
<circle cx="193.5" cy="24.5" r="1.5" fill="#FDF8F5" fill-opacity="0.4"/>
<circle cx="216.5" cy="24.5" r="1.5" fill="#FDF8F5" fill-opacity="0.4"/>
<circle cx="239.5" cy="24.5" r="1.5" fill="#FDF8F5" fill-opacity="0.4"/>
<circle cx="262.5" cy="24.5" r="1.5" fill="#FDF8F5" fill-opacity="0.4"/>
<circle cx="285.5" cy="24.5" r="1.5" fill="#FDF8F5" fill-opacity="0.4"/>
<circle cx="308.5" cy="24.5" r="1.5" fill="#FDF8F5" fill-opacity="0.4"/>
<circle cx="331.5" cy="24.5" r="1.5" fill="#FDF8F5" fill-opacity="0.4"/>
<circle cx="354.5" cy="24.5" r="1.5" fill="#FDF8F5" fill-opacity="0.4"/>
<circle cx="9.5" cy="47.5" r="1.5" fill="#FDF8F5" fill-opacity="0.4"/>
<circle cx="32.5" cy="47.5" r="1.5" fill="#FDF8F5" fill-opacity="0.4"/>
<circle cx="55.5" cy="47.5" r="1.5" fill="#FDF8F5" fill-opacity="0.4"/>
<circle cx="78.5" cy="47.5" r="1.5" fill="#FDF8F5" fill-opacity="0.4"/>
<circle cx="101.5" cy="47.5" r="1.5" fill="#FDF8F5" fill-opacity="0.4"/>
<circle cx="124.5" cy="47.5" r="1.5" fill="#FDF8F5" fill-opacity="0.4"/>
<circle cx="147.5" cy="47.5" r="1.5" fill="#FDF8F5" fill-opacity="0.4"/>
<circle cx="170.5" cy="47.5" r="1.5" fill="#FDF8F5" fill-opacity="0.4"/>
<circle cx="193.5" cy="47.5" r="1.5" fill="#FDF8F5" fill-opacity="0.4"/>
<circle cx="216.5" cy="47.5" r="1.5" fill="#FDF8F5" fill-opacity="0.4"/>
<circle cx="239.5" cy="47.5" r="1.5" fill="#FDF8F5" fill-opacity="0.4"/>
<circle cx="262.5" cy="47.5" r="1.5" fill="#FDF8F5" fill-opacity="0.4"/>
<circle cx="285.5" cy="47.5" r="1.5" fill="#FDF8F5" fill-opacity="0.4"/>
<circle cx="308.5" cy="47.5" r="1.5" fill="#FDF8F5" fill-opacity="0.4"/>
<circle cx="331.5" cy="47.5" r="1.5" fill="#FDF8F5" fill-opacity="0.4"/>
<circle cx="354.5" cy="47.5" r="1.5" fill="#FDF8F5" fill-opacity="0.4"/>
<circle cx="9.5" cy="70.5" r="1.5" fill="#FDF8F5" fill-opacity="0.4"/>
<circle cx="32.5" cy="70.5" r="1.5" fill="#FDF8F5" fill-opacity="0.4"/>
<circle cx="55.5" cy="70.5" r="1.5" fill="#FDF8F5" fill-opacity="0.4"/>
<circle cx="78.5" cy="70.5" r="1.5" fill="#FDF8F5" fill-opacity="0.4"/>
<circle cx="101.5" cy="70.5" r="1.5" fill="#FDF8F5" fill-opacity="0.4"/>
<circle cx="124.5" cy="70.5" r="1.5" fill="#FDF8F5" fill-opacity="0.4"/>
<circle cx="147.5" cy="70.5" r="1.5" fill="#FDF8F5" fill-opacity="0.4"/>
<circle cx="170.5" cy="70.5" r="1.5" fill="#FDF8F5" fill-opacity="0.4"/>
<circle cx="193.5" cy="70.5" r="1.5" fill="#FDF8F5" fill-opacity="0.4"/>
<circle cx="216.5" cy="70.5" r="1.5" fill="#FDF8F5" fill-opacity="0.4"/>
<circle cx="239.5" cy="70.5" r="1.5" fill="#FDF8F5" fill-opacity="0.4"/>
<circle cx="262.5" cy="70.5" r="1.5" fill="#FDF8F5" fill-opacity="0.4"/>
<circle cx="285.5" cy="70.5" r="1.5" fill="#FDF8F5" fill-opacity="0.4"/>
<circle cx="308.5" cy="70.5" r="1.5" fill="#FDF8F5" fill-opacity="0.4"/>
<circle cx="331.5" cy="70.5" r="1.5" fill="#FDF8F5" fill-opacity="0.4"/>
<circle cx="354.5" cy="70.5" r="1.5" fill="#FDF8F5" fill-opacity="0.4"/>
<circle cx="9.5" cy="93.5" r="1.5" fill="#FDF8F5" fill-opacity="0.4"/>
<circle cx="32.5" cy="93.5" r="1.5" fill="#FDF8F5" fill-opacity="0.4"/>
<circle cx="55.5" cy="93.5" r="1.5" fill="#FDF8F5" fill-opacity="0.4"/>
<circle cx="78.5" cy="93.5" r="1.5" fill="#FDF8F5" fill-opacity="0.4"/>
<circle cx="101.5" cy="93.5" r="1.5" fill="#FDF8F5" fill-opacity="0.4"/>
<circle cx="124.5" cy="93.5" r="1.5" fill="#FDF8F5" fill-opacity="0.4"/>
<circle cx="147.5" cy="93.5" r="1.5" fill="#FDF8F5" fill-opacity="0.4"/>
<circle cx="170.5" cy="93.5" r="1.5" fill="#FDF8F5" fill-opacity="0.4"/>
<circle cx="193.5" cy="93.5" r="1.5" fill="#FDF8F5" fill-opacity="0.4"/>
<circle cx="216.5" cy="93.5" r="1.5" fill="#FDF8F5" fill-opacity="0.4"/>
<circle cx="239.5" cy="93.5" r="1.5" fill="#FDF8F5" fill-opacity="0.4"/>
<circle cx="262.5" cy="93.5" r="1.5" fill="#FDF8F5" fill-opacity="0.4"/>
<circle cx="285.5" cy="93.5" r="1.5" fill="#FDF8F5" fill-opacity="0.4"/>
<circle cx="308.5" cy="93.5" r="1.5" fill="#FDF8F5" fill-opacity="0.4"/>
<circle cx="331.5" cy="93.5" r="1.5" fill="#FDF8F5" fill-opacity="0.4"/>
<circle cx="354.5" cy="93.5" r="1.5" fill="#FDF8F5" fill-opacity="0.4"/>
<circle cx="9.5" cy="116.5" r="1.5" fill="#FDF8F5" fill-opacity="0.4"/>
<circle cx="32.5" cy="116.5" r="1.5" fill="#FDF8F5" fill-opacity="0.4"/>
<circle cx="55.5" cy="116.5" r="1.5" fill="#FDF8F5" fill-opacity="0.4"/>
<circle cx="78.5" cy="116.5" r="1.5" fill="#FDF8F5" fill-opacity="0.4"/>
<circle cx="101.5" cy="116.5" r="1.5" fill="#FDF8F5" fill-opacity="0.4"/>
<circle cx="124.5" cy="116.5" r="1.5" fill="#FDF8F5" fill-opacity="0.4"/>
<circle cx="147.5" cy="116.5" r="1.5" fill="#FDF8F5" fill-opacity="0.4"/>
<circle cx="170.5" cy="116.5" r="1.5" fill="#FDF8F5" fill-opacity="0.4"/>
<circle cx="193.5" cy="116.5" r="1.5" fill="#FDF8F5" fill-opacity="0.4"/>
<circle cx="216.5" cy="116.5" r="1.5" fill="#FDF8F5" fill-opacity="0.4"/>
<circle cx="239.5" cy="116.5" r="1.5" fill="#FDF8F5" fill-opacity="0.4"/>
<circle cx="262.5" cy="116.5" r="1.5" fill="#FDF8F5" fill-opacity="0.4"/>
<circle cx="285.5" cy="116.5" r="1.5" fill="#FDF8F5" fill-opacity="0.4"/>
<circle cx="308.5" cy="116.5" r="1.5" fill="#FDF8F5" fill-opacity="0.4"/>
<circle cx="331.5" cy="116.5" r="1.5" fill="#FDF8F5" fill-opacity="0.4"/>
<circle cx="354.5" cy="116.5" r="1.5" fill="#FDF8F5" fill-opacity="0.4"/>
<circle cx="9.5" cy="139.5" r="1.5" fill="#FDF8F5" fill-opacity="0.4"/>
<circle cx="32.5" cy="139.5" r="1.5" fill="#FDF8F5" fill-opacity="0.4"/>
<circle cx="55.5" cy="139.5" r="1.5" fill="#FDF8F5" fill-opacity="0.4"/>
<circle cx="78.5" cy="139.5" r="1.5" fill="#FDF8F5" fill-opacity="0.4"/>
<circle cx="101.5" cy="139.5" r="1.5" fill="#FDF8F5" fill-opacity="0.4"/>
<circle cx="124.5" cy="139.5" r="1.5" fill="#FDF8F5" fill-opacity="0.4"/>
<circle cx="147.5" cy="139.5" r="1.5" fill="#FDF8F5" fill-opacity="0.4"/>
<circle cx="170.5" cy="139.5" r="1.5" fill="#FDF8F5" fill-opacity="0.4"/>
<circle cx="193.5" cy="139.5" r="1.5" fill="#FDF8F5" fill-opacity="0.4"/>
<circle cx="216.5" cy="139.5" r="1.5" fill="#FDF8F5" fill-opacity="0.4"/>
<circle cx="239.5" cy="139.5" r="1.5" fill="#FDF8F5" fill-opacity="0.4"/>
<circle cx="262.5" cy="139.5" r="1.5" fill="#FDF8F5" fill-opacity="0.4"/>
<circle cx="285.5" cy="139.5" r="1.5" fill="#FDF8F5" fill-opacity="0.4"/>
<circle cx="308.5" cy="139.5" r="1.5" fill="#FDF8F5" fill-opacity="0.4"/>
<circle cx="331.5" cy="139.5" r="1.5" fill="#FDF8F5" fill-opacity="0.4"/>
<circle cx="354.5" cy="139.5" r="1.5" fill="#FDF8F5" fill-opacity="0.4"/>
<circle cx="9.5" cy="162.5" r="1.5" fill="#FDF8F5" fill-opacity="0.4"/>
<circle cx="32.5" cy="162.5" r="1.5" fill="#FDF8F5" fill-opacity="0.4"/>
<circle cx="55.5" cy="162.5" r="1.5" fill="#FDF8F5" fill-opacity="0.4"/>
<circle cx="78.5" cy="162.5" r="1.5" fill="#FDF8F5" fill-opacity="0.4"/>
<circle cx="101.5" cy="162.5" r="1.5" fill="#FDF8F5" fill-opacity="0.4"/>
<circle cx="124.5" cy="162.5" r="1.5" fill="#FDF8F5" fill-opacity="0.4"/>
<circle cx="147.5" cy="162.5" r="1.5" fill="#FDF8F5" fill-opacity="0.4"/>
<circle cx="170.5" cy="162.5" r="1.5" fill="#FDF8F5" fill-opacity="0.4"/>
<circle cx="193.5" cy="162.5" r="1.5" fill="#FDF8F5" fill-opacity="0.4"/>
<circle cx="216.5" cy="162.5" r="1.5" fill="#FDF8F5" fill-opacity="0.4"/>
<circle cx="239.5" cy="162.5" r="1.5" fill="#FDF8F5" fill-opacity="0.4"/>
<circle cx="262.5" cy="162.5" r="1.5" fill="#FDF8F5" fill-opacity="0.4"/>
<circle cx="285.5" cy="162.5" r="1.5" fill="#FDF8F5" fill-opacity="0.4"/>
<circle cx="308.5" cy="162.5" r="1.5" fill="#FDF8F5" fill-opacity="0.4"/>
<circle cx="331.5" cy="162.5" r="1.5" fill="#FDF8F5" fill-opacity="0.4"/>
<circle cx="354.5" cy="162.5" r="1.5" fill="#FDF8F5" fill-opacity="0.4"/>
<circle cx="9.5" cy="185.5" r="1.5" fill="#FDF8F5" fill-opacity="0.4"/>
<circle cx="32.5" cy="185.5" r="1.5" fill="#FDF8F5" fill-opacity="0.4"/>
<circle cx="55.5" cy="185.5" r="1.5" fill="#FDF8F5" fill-opacity="0.4"/>
<circle cx="78.5" cy="185.5" r="1.5" fill="#FDF8F5" fill-opacity="0.4"/>
<circle cx="101.5" cy="185.5" r="1.5" fill="#FDF8F5" fill-opacity="0.4"/>
<circle cx="124.5" cy="185.5" r="1.5" fill="#FDF8F5" fill-opacity="0.4"/>
<circle cx="147.5" cy="185.5" r="1.5" fill="#FDF8F5" fill-opacity="0.4"/>
<circle cx="170.5" cy="185.5" r="1.5" fill="#FDF8F5" fill-opacity="0.4"/>
<circle cx="193.5" cy="185.5" r="1.5" fill="#FDF8F5" fill-opacity="0.4"/>
<circle cx="216.5" cy="185.5" r="1.5" fill="#FDF8F5" fill-opacity="0.4"/>
<circle cx="239.5" cy="185.5" r="1.5" fill="#FDF8F5" fill-opacity="0.4"/>
<circle cx="262.5" cy="185.5" r="1.5" fill="#FDF8F5" fill-opacity="0.4"/>
<circle cx="285.5" cy="185.5" r="1.5" fill="#FDF8F5" fill-opacity="0.4"/>
<circle cx="308.5" cy="185.5" r="1.5" fill="#FDF8F5" fill-opacity="0.4"/>
<circle cx="331.5" cy="185.5" r="1.5" fill="#FDF8F5" fill-opacity="0.4"/>
<circle cx="354.5" cy="185.5" r="1.5" fill="#FDF8F5" fill-opacity="0.4"/>
<circle cx="9.5" cy="208.5" r="1.5" fill="#FDF8F5" fill-opacity="0.4"/>
<circle cx="32.5" cy="208.5" r="1.5" fill="#FDF8F5" fill-opacity="0.4"/>
<circle cx="55.5" cy="208.5" r="1.5" fill="#FDF8F5" fill-opacity="0.4"/>
<circle cx="78.5" cy="208.5" r="1.5" fill="#FDF8F5" fill-opacity="0.4"/>
<circle cx="101.5" cy="208.5" r="1.5" fill="#FDF8F5" fill-opacity="0.4"/>
<circle cx="124.5" cy="208.5" r="1.5" fill="#FDF8F5" fill-opacity="0.4"/>
<circle cx="147.5" cy="208.5" r="1.5" fill="#FDF8F5" fill-opacity="0.4"/>
<circle cx="170.5" cy="208.5" r="1.5" fill="#FDF8F5" fill-opacity="0.4"/>
<circle cx="193.5" cy="208.5" r="1.5" fill="#FDF8F5" fill-opacity="0.4"/>
<circle cx="216.5" cy="208.5" r="1.5" fill="#FDF8F5" fill-opacity="0.4"/>
<circle cx="239.5" cy="208.5" r="1.5" fill="#FDF8F5" fill-opacity="0.4"/>
<circle cx="262.5" cy="208.5" r="1.5" fill="#FDF8F5" fill-opacity="0.4"/>
<circle cx="285.5" cy="208.5" r="1.5" fill="#FDF8F5" fill-opacity="0.4"/>
<circle cx="308.5" cy="208.5" r="1.5" fill="#FDF8F5" fill-opacity="0.4"/>
<circle cx="331.5" cy="208.5" r="1.5" fill="#FDF8F5" fill-opacity="0.4"/>
<circle cx="354.5" cy="208.5" r="1.5" fill="#FDF8F5" fill-opacity="0.4"/>
<circle cx="9.5" cy="231.5" r="1.5" fill="#FDF8F5" fill-opacity="0.4"/>
<circle cx="32.5" cy="231.5" r="1.5" fill="#FDF8F5" fill-opacity="0.4"/>
<circle cx="55.5" cy="231.5" r="1.5" fill="#FDF8F5" fill-opacity="0.4"/>
<circle cx="78.5" cy="231.5" r="1.5" fill="#FDF8F5" fill-opacity="0.4"/>
<circle cx="101.5" cy="231.5" r="1.5" fill="#FDF8F5" fill-opacity="0.4"/>
<circle cx="124.5" cy="231.5" r="1.5" fill="#FDF8F5" fill-opacity="0.4"/>
<circle cx="147.5" cy="231.5" r="1.5" fill="#FDF8F5" fill-opacity="0.4"/>
<circle cx="170.5" cy="231.5" r="1.5" fill="#FDF8F5" fill-opacity="0.4"/>
<circle cx="193.5" cy="231.5" r="1.5" fill="#FDF8F5" fill-opacity="0.4"/>
<circle cx="216.5" cy="231.5" r="1.5" fill="#FDF8F5" fill-opacity="0.4"/>
<circle cx="239.5" cy="231.5" r="1.5" fill="#FDF8F5" fill-opacity="0.4"/>
<circle cx="262.5" cy="231.5" r="1.5" fill="#FDF8F5" fill-opacity="0.4"/>
<circle cx="285.5" cy="231.5" r="1.5" fill="#FDF8F5" fill-opacity="0.4"/>
<circle cx="308.5" cy="231.5" r="1.5" fill="#FDF8F5" fill-opacity="0.4"/>
<circle cx="331.5" cy="231.5" r="1.5" fill="#FDF8F5" fill-opacity="0.4"/>
<circle cx="354.5" cy="231.5" r="1.5" fill="#FDF8F5" fill-opacity="0.4"/>
<circle cx="9.5" cy="254.5" r="1.5" fill="#FDF8F5" fill-opacity="0.4"/>
<circle cx="32.5" cy="254.5" r="1.5" fill="#FDF8F5" fill-opacity="0.4"/>
<circle cx="55.5" cy="254.5" r="1.5" fill="#FDF8F5" fill-opacity="0.4"/>
<circle cx="78.5" cy="254.5" r="1.5" fill="#FDF8F5" fill-opacity="0.4"/>
<circle cx="101.5" cy="254.5" r="1.5" fill="#FDF8F5" fill-opacity="0.4"/>
<circle cx="124.5" cy="254.5" r="1.5" fill="#FDF8F5" fill-opacity="0.4"/>
<circle cx="147.5" cy="254.5" r="1.5" fill="#FDF8F5" fill-opacity="0.4"/>
<circle cx="170.5" cy="254.5" r="1.5" fill="#FDF8F5" fill-opacity="0.4"/>
<circle cx="193.5" cy="254.5" r="1.5" fill="#FDF8F5" fill-opacity="0.4"/>
<circle cx="216.5" cy="254.5" r="1.5" fill="#FDF8F5" fill-opacity="0.4"/>
<circle cx="239.5" cy="254.5" r="1.5" fill="#FDF8F5" fill-opacity="0.4"/>
<circle cx="262.5" cy="254.5" r="1.5" fill="#FDF8F5" fill-opacity="0.4"/>
<circle cx="285.5" cy="254.5" r="1.5" fill="#FDF8F5" fill-opacity="0.4"/>
<circle cx="308.5" cy="254.5" r="1.5" fill="#FDF8F5" fill-opacity="0.4"/>
<circle cx="331.5" cy="254.5" r="1.5" fill="#FDF8F5" fill-opacity="0.4"/>
<circle cx="354.5" cy="254.5" r="1.5" fill="#FDF8F5" fill-opacity="0.4"/>
<circle cx="9.5" cy="277.5" r="1.5" fill="#FDF8F5" fill-opacity="0.4"/>
<circle cx="32.5" cy="277.5" r="1.5" fill="#FDF8F5" fill-opacity="0.4"/>
<circle cx="55.5" cy="277.5" r="1.5" fill="#FDF8F5" fill-opacity="0.4"/>
<circle cx="78.5" cy="277.5" r="1.5" fill="#FDF8F5" fill-opacity="0.4"/>
<circle cx="101.5" cy="277.5" r="1.5" fill="#FDF8F5" fill-opacity="0.4"/>
<circle cx="124.5" cy="277.5" r="1.5" fill="#FDF8F5" fill-opacity="0.4"/>
<circle cx="147.5" cy="277.5" r="1.5" fill="#FDF8F5" fill-opacity="0.4"/>
<circle cx="170.5" cy="277.5" r="1.5" fill="#FDF8F5" fill-opacity="0.4"/>
<circle cx="193.5" cy="277.5" r="1.5" fill="#FDF8F5" fill-opacity="0.4"/>
<circle cx="216.5" cy="277.5" r="1.5" fill="#FDF8F5" fill-opacity="0.4"/>
<circle cx="239.5" cy="277.5" r="1.5" fill="#FDF8F5" fill-opacity="0.4"/>
<circle cx="262.5" cy="277.5" r="1.5" fill="#FDF8F5" fill-opacity="0.4"/>
<circle cx="285.5" cy="277.5" r="1.5" fill="#FDF8F5" fill-opacity="0.4"/>
<circle cx="308.5" cy="277.5" r="1.5" fill="#FDF8F5" fill-opacity="0.4"/>
<circle cx="331.5" cy="277.5" r="1.5" fill="#FDF8F5" fill-opacity="0.4"/>
<circle cx="354.5" cy="277.5" r="1.5" fill="#FDF8F5" fill-opacity="0.4"/>
<circle cx="9.5" cy="300.5" r="1.5" fill="#FDF8F5" fill-opacity="0.4"/>
<circle cx="32.5" cy="300.5" r="1.5" fill="#FDF8F5" fill-opacity="0.4"/>
<circle cx="55.5" cy="300.5" r="1.5" fill="#FDF8F5" fill-opacity="0.4"/>
<circle cx="78.5" cy="300.5" r="1.5" fill="#FDF8F5" fill-opacity="0.4"/>
<circle cx="101.5" cy="300.5" r="1.5" fill="#FDF8F5" fill-opacity="0.4"/>
<circle cx="124.5" cy="300.5" r="1.5" fill="#FDF8F5" fill-opacity="0.4"/>
<circle cx="147.5" cy="300.5" r="1.5" fill="#FDF8F5" fill-opacity="0.4"/>
<circle cx="170.5" cy="300.5" r="1.5" fill="#FDF8F5" fill-opacity="0.4"/>
<circle cx="193.5" cy="300.5" r="1.5" fill="#FDF8F5" fill-opacity="0.4"/>
<circle cx="216.5" cy="300.5" r="1.5" fill="#FDF8F5" fill-opacity="0.4"/>
<circle cx="239.5" cy="300.5" r="1.5" fill="#FDF8F5" fill-opacity="0.4"/>
<circle cx="262.5" cy="300.5" r="1.5" fill="#FDF8F5" fill-opacity="0.4"/>
<circle cx="285.5" cy="300.5" r="1.5" fill="#FDF8F5" fill-opacity="0.4"/>
<circle cx="308.5" cy="300.5" r="1.5" fill="#FDF8F5" fill-opacity="0.4"/>
<circle cx="331.5" cy="300.5" r="1.5" fill="#FDF8F5" fill-opacity="0.4"/>
<circle cx="354.5" cy="300.5" r="1.5" fill="#FDF8F5" fill-opacity="0.4"/>
<circle cx="9.5" cy="323.5" r="1.5" fill="#FDF8F5" fill-opacity="0.4"/>
<circle cx="32.5" cy="323.5" r="1.5" fill="#FDF8F5" fill-opacity="0.4"/>
<circle cx="55.5" cy="323.5" r="1.5" fill="#FDF8F5" fill-opacity="0.4"/>
<circle cx="78.5" cy="323.5" r="1.5" fill="#FDF8F5" fill-opacity="0.4"/>
<circle cx="101.5" cy="323.5" r="1.5" fill="#FDF8F5" fill-opacity="0.4"/>
<circle cx="124.5" cy="323.5" r="1.5" fill="#FDF8F5" fill-opacity="0.4"/>
<circle cx="147.5" cy="323.5" r="1.5" fill="#FDF8F5" fill-opacity="0.4"/>
<circle cx="170.5" cy="323.5" r="1.5" fill="#FDF8F5" fill-opacity="0.4"/>
<circle cx="193.5" cy="323.5" r="1.5" fill="#FDF8F5" fill-opacity="0.4"/>
<circle cx="216.5" cy="323.5" r="1.5" fill="#FDF8F5" fill-opacity="0.4"/>
<circle cx="239.5" cy="323.5" r="1.5" fill="#FDF8F5" fill-opacity="0.4"/>
<circle cx="262.5" cy="323.5" r="1.5" fill="#FDF8F5" fill-opacity="0.4"/>
<circle cx="285.5" cy="323.5" r="1.5" fill="#FDF8F5" fill-opacity="0.4"/>
<circle cx="308.5" cy="323.5" r="1.5" fill="#FDF8F5" fill-opacity="0.4"/>
<circle cx="331.5" cy="323.5" r="1.5" fill="#FDF8F5" fill-opacity="0.4"/>
<circle cx="354.5" cy="323.5" r="1.5" fill="#FDF8F5" fill-opacity="0.4"/>
<circle cx="9.5" cy="346.5" r="1.5" fill="#FDF8F5" fill-opacity="0.4"/>
<circle cx="32.5" cy="346.5" r="1.5" fill="#FDF8F5" fill-opacity="0.4"/>
<circle cx="55.5" cy="346.5" r="1.5" fill="#FDF8F5" fill-opacity="0.4"/>
<circle cx="78.5" cy="346.5" r="1.5" fill="#FDF8F5" fill-opacity="0.4"/>
<circle cx="101.5" cy="346.5" r="1.5" fill="#FDF8F5" fill-opacity="0.4"/>
<circle cx="124.5" cy="346.5" r="1.5" fill="#FDF8F5" fill-opacity="0.4"/>
<circle cx="147.5" cy="346.5" r="1.5" fill="#FDF8F5" fill-opacity="0.4"/>
<circle cx="170.5" cy="346.5" r="1.5" fill="#FDF8F5" fill-opacity="0.4"/>
<circle cx="193.5" cy="346.5" r="1.5" fill="#FDF8F5" fill-opacity="0.4"/>
<circle cx="216.5" cy="346.5" r="1.5" fill="#FDF8F5" fill-opacity="0.4"/>
<circle cx="239.5" cy="346.5" r="1.5" fill="#FDF8F5" fill-opacity="0.4"/>
<circle cx="262.5" cy="346.5" r="1.5" fill="#FDF8F5" fill-opacity="0.4"/>
<circle cx="285.5" cy="346.5" r="1.5" fill="#FDF8F5" fill-opacity="0.4"/>
<circle cx="308.5" cy="346.5" r="1.5" fill="#FDF8F5" fill-opacity="0.4"/>
<circle cx="331.5" cy="346.5" r="1.5" fill="#FDF8F5" fill-opacity="0.4"/>
<circle cx="354.5" cy="346.5" r="1.5" fill="#FDF8F5" fill-opacity="0.4"/>
<circle cx="9.5" cy="369.5" r="1.5" fill="#FDF8F5" fill-opacity="0.4"/>
<circle cx="32.5" cy="369.5" r="1.5" fill="#FDF8F5" fill-opacity="0.4"/>
<circle cx="55.5" cy="369.5" r="1.5" fill="#FDF8F5" fill-opacity="0.4"/>
<circle cx="78.5" cy="369.5" r="1.5" fill="#FDF8F5" fill-opacity="0.4"/>
<circle cx="101.5" cy="369.5" r="1.5" fill="#FDF8F5" fill-opacity="0.4"/>
<circle cx="124.5" cy="369.5" r="1.5" fill="#FDF8F5" fill-opacity="0.4"/>
<circle cx="147.5" cy="369.5" r="1.5" fill="#FDF8F5" fill-opacity="0.4"/>
<circle cx="170.5" cy="369.5" r="1.5" fill="#FDF8F5" fill-opacity="0.4"/>
<circle cx="193.5" cy="369.5" r="1.5" fill="#FDF8F5" fill-opacity="0.4"/>
<circle cx="216.5" cy="369.5" r="1.5" fill="#FDF8F5" fill-opacity="0.4"/>
<circle cx="239.5" cy="369.5" r="1.5" fill="#FDF8F5" fill-opacity="0.4"/>
<circle cx="262.5" cy="369.5" r="1.5" fill="#FDF8F5" fill-opacity="0.4"/>
<circle cx="285.5" cy="369.5" r="1.5" fill="#FDF8F5" fill-opacity="0.4"/>
<circle cx="308.5" cy="369.5" r="1.5" fill="#FDF8F5" fill-opacity="0.4"/>
<circle cx="331.5" cy="369.5" r="1.5" fill="#FDF8F5" fill-opacity="0.4"/>
<circle cx="354.5" cy="369.5" r="1.5" fill="#FDF8F5" fill-opacity="0.4"/>
<circle cx="9.5" cy="392.5" r="1.5" fill="#FDF8F5" fill-opacity="0.4"/>
<circle cx="32.5" cy="392.5" r="1.5" fill="#FDF8F5" fill-opacity="0.4"/>
<circle cx="55.5" cy="392.5" r="1.5" fill="#FDF8F5" fill-opacity="0.4"/>
<circle cx="78.5" cy="392.5" r="1.5" fill="#FDF8F5" fill-opacity="0.4"/>
<circle cx="101.5" cy="392.5" r="1.5" fill="#FDF8F5" fill-opacity="0.4"/>
<circle cx="124.5" cy="392.5" r="1.5" fill="#FDF8F5" fill-opacity="0.4"/>
<circle cx="147.5" cy="392.5" r="1.5" fill="#FDF8F5" fill-opacity="0.4"/>
<circle cx="170.5" cy="392.5" r="1.5" fill="#FDF8F5" fill-opacity="0.4"/>
<circle cx="193.5" cy="392.5" r="1.5" fill="#FDF8F5" fill-opacity="0.4"/>
<circle cx="216.5" cy="392.5" r="1.5" fill="#FDF8F5" fill-opacity="0.4"/>
<circle cx="239.5" cy="392.5" r="1.5" fill="#FDF8F5" fill-opacity="0.4"/>
<circle cx="262.5" cy="392.5" r="1.5" fill="#FDF8F5" fill-opacity="0.4"/>
<circle cx="285.5" cy="392.5" r="1.5" fill="#FDF8F5" fill-opacity="0.4"/>
<circle cx="308.5" cy="392.5" r="1.5" fill="#FDF8F5" fill-opacity="0.4"/>
<circle cx="331.5" cy="392.5" r="1.5" fill="#FDF8F5" fill-opacity="0.4"/>
<circle cx="354.5" cy="392.5" r="1.5" fill="#FDF8F5" fill-opacity="0.4"/>
<circle cx="9.5" cy="415.5" r="1.5" fill="#FDF8F5" fill-opacity="0.4"/>
<circle cx="32.5" cy="415.5" r="1.5" fill="#FDF8F5" fill-opacity="0.4"/>
<circle cx="55.5" cy="415.5" r="1.5" fill="#FDF8F5" fill-opacity="0.4"/>
<circle cx="78.5" cy="415.5" r="1.5" fill="#FDF8F5" fill-opacity="0.4"/>
<circle cx="101.5" cy="415.5" r="1.5" fill="#FDF8F5" fill-opacity="0.4"/>
<circle cx="124.5" cy="415.5" r="1.5" fill="#FDF8F5" fill-opacity="0.4"/>
<circle cx="147.5" cy="415.5" r="1.5" fill="#FDF8F5" fill-opacity="0.4"/>
<circle cx="170.5" cy="415.5" r="1.5" fill="#FDF8F5" fill-opacity="0.4"/>
<circle cx="193.5" cy="415.5" r="1.5" fill="#FDF8F5" fill-opacity="0.4"/>
<circle cx="216.5" cy="415.5" r="1.5" fill="#FDF8F5" fill-opacity="0.4"/>
<circle cx="239.5" cy="415.5" r="1.5" fill="#FDF8F5" fill-opacity="0.4"/>
<circle cx="262.5" cy="415.5" r="1.5" fill="#FDF8F5" fill-opacity="0.4"/>
<circle cx="285.5" cy="415.5" r="1.5" fill="#FDF8F5" fill-opacity="0.4"/>
<circle cx="308.5" cy="415.5" r="1.5" fill="#FDF8F5" fill-opacity="0.4"/>
<circle cx="331.5" cy="415.5" r="1.5" fill="#FDF8F5" fill-opacity="0.4"/>
<circle cx="354.5" cy="415.5" r="1.5" fill="#FDF8F5" fill-opacity="0.4"/>
<circle cx="9.5" cy="438.5" r="1.5" fill="#FDF8F5" fill-opacity="0.4"/>
<circle cx="32.5" cy="438.5" r="1.5" fill="#FDF8F5" fill-opacity="0.4"/>
<circle cx="55.5" cy="438.5" r="1.5" fill="#FDF8F5" fill-opacity="0.4"/>
<circle cx="78.5" cy="438.5" r="1.5" fill="#FDF8F5" fill-opacity="0.4"/>
<circle cx="101.5" cy="438.5" r="1.5" fill="#FDF8F5" fill-opacity="0.4"/>
<circle cx="124.5" cy="438.5" r="1.5" fill="#FDF8F5" fill-opacity="0.4"/>
<circle cx="147.5" cy="438.5" r="1.5" fill="#FDF8F5" fill-opacity="0.4"/>
<circle cx="170.5" cy="438.5" r="1.5" fill="#FDF8F5" fill-opacity="0.4"/>
<circle cx="193.5" cy="438.5" r="1.5" fill="#FDF8F5" fill-opacity="0.4"/>
<circle cx="216.5" cy="438.5" r="1.5" fill="#FDF8F5" fill-opacity="0.4"/>
<circle cx="239.5" cy="438.5" r="1.5" fill="#FDF8F5" fill-opacity="0.4"/>
<circle cx="262.5" cy="438.5" r="1.5" fill="#FDF8F5" fill-opacity="0.4"/>
<circle cx="285.5" cy="438.5" r="1.5" fill="#FDF8F5" fill-opacity="0.4"/>
<circle cx="308.5" cy="438.5" r="1.5" fill="#FDF8F5" fill-opacity="0.4"/>
<circle cx="331.5" cy="438.5" r="1.5" fill="#FDF8F5" fill-opacity="0.4"/>
<circle cx="354.5" cy="438.5" r="1.5" fill="#FDF8F5" fill-opacity="0.4"/>
<circle cx="9.5" cy="461.5" r="1.5" fill="#FDF8F5" fill-opacity="0.4"/>
<circle cx="32.5" cy="461.5" r="1.5" fill="#FDF8F5" fill-opacity="0.4"/>
<circle cx="55.5" cy="461.5" r="1.5" fill="#FDF8F5" fill-opacity="0.4"/>
<circle cx="78.5" cy="461.5" r="1.5" fill="#FDF8F5" fill-opacity="0.4"/>
<circle cx="101.5" cy="461.5" r="1.5" fill="#FDF8F5" fill-opacity="0.4"/>
<circle cx="124.5" cy="461.5" r="1.5" fill="#FDF8F5" fill-opacity="0.4"/>
<circle cx="147.5" cy="461.5" r="1.5" fill="#FDF8F5" fill-opacity="0.4"/>
<circle cx="170.5" cy="461.5" r="1.5" fill="#FDF8F5" fill-opacity="0.4"/>
<circle cx="193.5" cy="461.5" r="1.5" fill="#FDF8F5" fill-opacity="0.4"/>
<circle cx="216.5" cy="461.5" r="1.5" fill="#FDF8F5" fill-opacity="0.4"/>
<circle cx="239.5" cy="461.5" r="1.5" fill="#FDF8F5" fill-opacity="0.4"/>
<circle cx="262.5" cy="461.5" r="1.5" fill="#FDF8F5" fill-opacity="0.4"/>
<circle cx="285.5" cy="461.5" r="1.5" fill="#FDF8F5" fill-opacity="0.4"/>
<circle cx="308.5" cy="461.5" r="1.5" fill="#FDF8F5" fill-opacity="0.4"/>
<circle cx="331.5" cy="461.5" r="1.5" fill="#FDF8F5" fill-opacity="0.4"/>
<circle cx="354.5" cy="461.5" r="1.5" fill="#FDF8F5" fill-opacity="0.4"/>
<circle cx="9.5" cy="484.5" r="1.5" fill="#FDF8F5" fill-opacity="0.4"/>
<circle cx="32.5" cy="484.5" r="1.5" fill="#FDF8F5" fill-opacity="0.4"/>
<circle cx="55.5" cy="484.5" r="1.5" fill="#FDF8F5" fill-opacity="0.4"/>
<circle cx="78.5" cy="484.5" r="1.5" fill="#FDF8F5" fill-opacity="0.4"/>
<circle cx="101.5" cy="484.5" r="1.5" fill="#FDF8F5" fill-opacity="0.4"/>
<circle cx="124.5" cy="484.5" r="1.5" fill="#FDF8F5" fill-opacity="0.4"/>
<circle cx="147.5" cy="484.5" r="1.5" fill="#FDF8F5" fill-opacity="0.4"/>
<circle cx="170.5" cy="484.5" r="1.5" fill="#FDF8F5" fill-opacity="0.4"/>
<circle cx="193.5" cy="484.5" r="1.5" fill="#FDF8F5" fill-opacity="0.4"/>
<circle cx="216.5" cy="484.5" r="1.5" fill="#FDF8F5" fill-opacity="0.4"/>
<circle cx="239.5" cy="484.5" r="1.5" fill="#FDF8F5" fill-opacity="0.4"/>
<circle cx="262.5" cy="484.5" r="1.5" fill="#FDF8F5" fill-opacity="0.4"/>
<circle cx="285.5" cy="484.5" r="1.5" fill="#FDF8F5" fill-opacity="0.4"/>
<circle cx="308.5" cy="484.5" r="1.5" fill="#FDF8F5" fill-opacity="0.4"/>
<circle cx="331.5" cy="484.5" r="1.5" fill="#FDF8F5" fill-opacity="0.4"/>
<circle cx="354.5" cy="484.5" r="1.5" fill="#FDF8F5" fill-opacity="0.4"/>
<circle cx="9.5" cy="507.5" r="1.5" fill="#FDF8F5" fill-opacity="0.4"/>
<circle cx="32.5" cy="507.5" r="1.5" fill="#FDF8F5" fill-opacity="0.4"/>
<circle cx="55.5" cy="507.5" r="1.5" fill="#FDF8F5" fill-opacity="0.4"/>
<circle cx="78.5" cy="507.5" r="1.5" fill="#FDF8F5" fill-opacity="0.4"/>
<circle cx="101.5" cy="507.5" r="1.5" fill="#FDF8F5" fill-opacity="0.4"/>
<circle cx="124.5" cy="507.5" r="1.5" fill="#FDF8F5" fill-opacity="0.4"/>
<circle cx="147.5" cy="507.5" r="1.5" fill="#FDF8F5" fill-opacity="0.4"/>
<circle cx="170.5" cy="507.5" r="1.5" fill="#FDF8F5" fill-opacity="0.4"/>
<circle cx="193.5" cy="507.5" r="1.5" fill="#FDF8F5" fill-opacity="0.4"/>
<circle cx="216.5" cy="507.5" r="1.5" fill="#FDF8F5" fill-opacity="0.4"/>
<circle cx="239.5" cy="507.5" r="1.5" fill="#FDF8F5" fill-opacity="0.4"/>
<circle cx="262.5" cy="507.5" r="1.5" fill="#FDF8F5" fill-opacity="0.4"/>
<circle cx="285.5" cy="507.5" r="1.5" fill="#FDF8F5" fill-opacity="0.4"/>
<circle cx="308.5" cy="507.5" r="1.5" fill="#FDF8F5" fill-opacity="0.4"/>
<circle cx="331.5" cy="507.5" r="1.5" fill="#FDF8F5" fill-opacity="0.4"/>
<circle cx="354.5" cy="507.5" r="1.5" fill="#FDF8F5" fill-opacity="0.4"/>
<circle cx="9.5" cy="530.5" r="1.5" fill="#FDF8F5" fill-opacity="0.4"/>
<circle cx="32.5" cy="530.5" r="1.5" fill="#FDF8F5" fill-opacity="0.4"/>
<circle cx="55.5" cy="530.5" r="1.5" fill="#FDF8F5" fill-opacity="0.4"/>
<circle cx="78.5" cy="530.5" r="1.5" fill="#FDF8F5" fill-opacity="0.4"/>
<circle cx="101.5" cy="530.5" r="1.5" fill="#FDF8F5" fill-opacity="0.4"/>
<circle cx="124.5" cy="530.5" r="1.5" fill="#FDF8F5" fill-opacity="0.4"/>
<circle cx="147.5" cy="530.5" r="1.5" fill="#FDF8F5" fill-opacity="0.4"/>
<circle cx="170.5" cy="530.5" r="1.5" fill="#FDF8F5" fill-opacity="0.4"/>
<circle cx="193.5" cy="530.5" r="1.5" fill="#FDF8F5" fill-opacity="0.4"/>
<circle cx="216.5" cy="530.5" r="1.5" fill="#FDF8F5" fill-opacity="0.4"/>
<circle cx="239.5" cy="530.5" r="1.5" fill="#FDF8F5" fill-opacity="0.4"/>
<circle cx="262.5" cy="530.5" r="1.5" fill="#FDF8F5" fill-opacity="0.4"/>
<circle cx="285.5" cy="530.5" r="1.5" fill="#FDF8F5" fill-opacity="0.4"/>
<circle cx="308.5" cy="530.5" r="1.5" fill="#FDF8F5" fill-opacity="0.4"/>
<circle cx="331.5" cy="530.5" r="1.5" fill="#FDF8F5" fill-opacity="0.4"/>
<circle cx="354.5" cy="530.5" r="1.5" fill="#FDF8F5" fill-opacity="0.4"/>
<circle cx="9.5" cy="553.5" r="1.5" fill="#FDF8F5" fill-opacity="0.4"/>
<circle cx="32.5" cy="553.5" r="1.5" fill="#FDF8F5" fill-opacity="0.4"/>
<circle cx="55.5" cy="553.5" r="1.5" fill="#FDF8F5" fill-opacity="0.4"/>
<circle cx="78.5" cy="553.5" r="1.5" fill="#FDF8F5" fill-opacity="0.4"/>
<circle cx="101.5" cy="553.5" r="1.5" fill="#FDF8F5" fill-opacity="0.4"/>
<circle cx="124.5" cy="553.5" r="1.5" fill="#FDF8F5" fill-opacity="0.4"/>
<circle cx="147.5" cy="553.5" r="1.5" fill="#FDF8F5" fill-opacity="0.4"/>
<circle cx="170.5" cy="553.5" r="1.5" fill="#FDF8F5" fill-opacity="0.4"/>
<circle cx="193.5" cy="553.5" r="1.5" fill="#FDF8F5" fill-opacity="0.4"/>
<circle cx="216.5" cy="553.5" r="1.5" fill="#FDF8F5" fill-opacity="0.4"/>
<circle cx="239.5" cy="553.5" r="1.5" fill="#FDF8F5" fill-opacity="0.4"/>
<circle cx="262.5" cy="553.5" r="1.5" fill="#FDF8F5" fill-opacity="0.4"/>
<circle cx="285.5" cy="553.5" r="1.5" fill="#FDF8F5" fill-opacity="0.4"/>
<circle cx="308.5" cy="553.5" r="1.5" fill="#FDF8F5" fill-opacity="0.4"/>
<circle cx="331.5" cy="553.5" r="1.5" fill="#FDF8F5" fill-opacity="0.4"/>
<circle cx="354.5" cy="553.5" r="1.5" fill="#FDF8F5" fill-opacity="0.4"/>
<circle cx="9.5" cy="576.5" r="1.5" fill="#FDF8F5" fill-opacity="0.4"/>
<circle cx="32.5" cy="576.5" r="1.5" fill="#FDF8F5" fill-opacity="0.4"/>
<circle cx="55.5" cy="576.5" r="1.5" fill="#FDF8F5" fill-opacity="0.4"/>
<circle cx="78.5" cy="576.5" r="1.5" fill="#FDF8F5" fill-opacity="0.4"/>
<circle cx="101.5" cy="576.5" r="1.5" fill="#FDF8F5" fill-opacity="0.4"/>
<circle cx="124.5" cy="576.5" r="1.5" fill="#FDF8F5" fill-opacity="0.4"/>
<circle cx="147.5" cy="576.5" r="1.5" fill="#FDF8F5" fill-opacity="0.4"/>
<circle cx="170.5" cy="576.5" r="1.5" fill="#FDF8F5" fill-opacity="0.4"/>
<circle cx="193.5" cy="576.5" r="1.5" fill="#FDF8F5" fill-opacity="0.4"/>
<circle cx="216.5" cy="576.5" r="1.5" fill="#FDF8F5" fill-opacity="0.4"/>
<circle cx="239.5" cy="576.5" r="1.5" fill="#FDF8F5" fill-opacity="0.4"/>
<circle cx="262.5" cy="576.5" r="1.5" fill="#FDF8F5" fill-opacity="0.4"/>
<circle cx="285.5" cy="576.5" r="1.5" fill="#FDF8F5" fill-opacity="0.4"/>
<circle cx="308.5" cy="576.5" r="1.5" fill="#FDF8F5" fill-opacity="0.4"/>
<circle cx="331.5" cy="576.5" r="1.5" fill="#FDF8F5" fill-opacity="0.4"/>
<circle cx="354.5" cy="576.5" r="1.5" fill="#FDF8F5" fill-opacity="0.4"/>
<circle cx="9.5" cy="599.5" r="1.5" fill="#FDF8F5" fill-opacity="0.4"/>
<circle cx="32.5" cy="599.5" r="1.5" fill="#FDF8F5" fill-opacity="0.4"/>
<circle cx="55.5" cy="599.5" r="1.5" fill="#FDF8F5" fill-opacity="0.4"/>
<circle cx="78.5" cy="599.5" r="1.5" fill="#FDF8F5" fill-opacity="0.4"/>
<circle cx="101.5" cy="599.5" r="1.5" fill="#FDF8F5" fill-opacity="0.4"/>
<circle cx="124.5" cy="599.5" r="1.5" fill="#FDF8F5" fill-opacity="0.4"/>
<circle cx="147.5" cy="599.5" r="1.5" fill="#FDF8F5" fill-opacity="0.4"/>
<circle cx="170.5" cy="599.5" r="1.5" fill="#FDF8F5" fill-opacity="0.4"/>
<circle cx="193.5" cy="599.5" r="1.5" fill="#FDF8F5" fill-opacity="0.4"/>
<circle cx="216.5" cy="599.5" r="1.5" fill="#FDF8F5" fill-opacity="0.4"/>
<circle cx="239.5" cy="599.5" r="1.5" fill="#FDF8F5" fill-opacity="0.4"/>
<circle cx="262.5" cy="599.5" r="1.5" fill="#FDF8F5" fill-opacity="0.4"/>
<circle cx="285.5" cy="599.5" r="1.5" fill="#FDF8F5" fill-opacity="0.4"/>
<circle cx="308.5" cy="599.5" r="1.5" fill="#FDF8F5" fill-opacity="0.4"/>
<circle cx="331.5" cy="599.5" r="1.5" fill="#FDF8F5" fill-opacity="0.4"/>
<circle cx="354.5" cy="599.5" r="1.5" fill="#FDF8F5" fill-opacity="0.4"/>
<circle cx="9.5" cy="622.5" r="1.5" fill="#FDF8F5" fill-opacity="0.4"/>
<circle cx="32.5" cy="622.5" r="1.5" fill="#FDF8F5" fill-opacity="0.4"/>
<circle cx="55.5" cy="622.5" r="1.5" fill="#FDF8F5" fill-opacity="0.4"/>
<circle cx="78.5" cy="622.5" r="1.5" fill="#FDF8F5" fill-opacity="0.4"/>
<circle cx="101.5" cy="622.5" r="1.5" fill="#FDF8F5" fill-opacity="0.4"/>
<circle cx="124.5" cy="622.5" r="1.5" fill="#FDF8F5" fill-opacity="0.4"/>
<circle cx="147.5" cy="622.5" r="1.5" fill="#FDF8F5" fill-opacity="0.4"/>
<circle cx="170.5" cy="622.5" r="1.5" fill="#FDF8F5" fill-opacity="0.4"/>
<circle cx="193.5" cy="622.5" r="1.5" fill="#FDF8F5" fill-opacity="0.4"/>
<circle cx="216.5" cy="622.5" r="1.5" fill="#FDF8F5" fill-opacity="0.4"/>
<circle cx="239.5" cy="622.5" r="1.5" fill="#FDF8F5" fill-opacity="0.4"/>
<circle cx="262.5" cy="622.5" r="1.5" fill="#FDF8F5" fill-opacity="0.4"/>
<circle cx="285.5" cy="622.5" r="1.5" fill="#FDF8F5" fill-opacity="0.4"/>
<circle cx="308.5" cy="622.5" r="1.5" fill="#FDF8F5" fill-opacity="0.4"/>
<circle cx="331.5" cy="622.5" r="1.5" fill="#FDF8F5" fill-opacity="0.4"/>
<circle cx="354.5" cy="622.5" r="1.5" fill="#FDF8F5" fill-opacity="0.4"/>
<circle cx="9.5" cy="645.5" r="1.5" fill="#FDF8F5" fill-opacity="0.4"/>
<circle cx="32.5" cy="645.5" r="1.5" fill="#FDF8F5" fill-opacity="0.4"/>
<circle cx="55.5" cy="645.5" r="1.5" fill="#FDF8F5" fill-opacity="0.4"/>
<circle cx="78.5" cy="645.5" r="1.5" fill="#FDF8F5" fill-opacity="0.4"/>
<circle cx="101.5" cy="645.5" r="1.5" fill="#FDF8F5" fill-opacity="0.4"/>
<circle cx="124.5" cy="645.5" r="1.5" fill="#FDF8F5" fill-opacity="0.4"/>
<circle cx="147.5" cy="645.5" r="1.5" fill="#FDF8F5" fill-opacity="0.4"/>
<circle cx="170.5" cy="645.5" r="1.5" fill="#FDF8F5" fill-opacity="0.4"/>
<circle cx="193.5" cy="645.5" r="1.5" fill="#FDF8F5" fill-opacity="0.4"/>
<circle cx="216.5" cy="645.5" r="1.5" fill="#FDF8F5" fill-opacity="0.4"/>
<circle cx="239.5" cy="645.5" r="1.5" fill="#FDF8F5" fill-opacity="0.4"/>
<circle cx="262.5" cy="645.5" r="1.5" fill="#FDF8F5" fill-opacity="0.4"/>
<circle cx="285.5" cy="645.5" r="1.5" fill="#FDF8F5" fill-opacity="0.4"/>
<circle cx="308.5" cy="645.5" r="1.5" fill="#FDF8F5" fill-opacity="0.4"/>
<circle cx="331.5" cy="645.5" r="1.5" fill="#FDF8F5" fill-opacity="0.4"/>
<circle cx="354.5" cy="645.5" r="1.5" fill="#FDF8F5" fill-opacity="0.4"/>
<circle cx="9.5" cy="668.5" r="1.5" fill="#FDF8F5" fill-opacity="0.4"/>
<circle cx="32.5" cy="668.5" r="1.5" fill="#FDF8F5" fill-opacity="0.4"/>
<circle cx="55.5" cy="668.5" r="1.5" fill="#FDF8F5" fill-opacity="0.4"/>
<circle cx="78.5" cy="668.5" r="1.5" fill="#FDF8F5" fill-opacity="0.4"/>
<circle cx="101.5" cy="668.5" r="1.5" fill="#FDF8F5" fill-opacity="0.4"/>
<circle cx="124.5" cy="668.5" r="1.5" fill="#FDF8F5" fill-opacity="0.4"/>
<circle cx="147.5" cy="668.5" r="1.5" fill="#FDF8F5" fill-opacity="0.4"/>
<circle cx="170.5" cy="668.5" r="1.5" fill="#FDF8F5" fill-opacity="0.4"/>
<circle cx="193.5" cy="668.5" r="1.5" fill="#FDF8F5" fill-opacity="0.4"/>
<circle cx="216.5" cy="668.5" r="1.5" fill="#FDF8F5" fill-opacity="0.4"/>
<circle cx="239.5" cy="668.5" r="1.5" fill="#FDF8F5" fill-opacity="0.4"/>
<circle cx="262.5" cy="668.5" r="1.5" fill="#FDF8F5" fill-opacity="0.4"/>
<circle cx="285.5" cy="668.5" r="1.5" fill="#FDF8F5" fill-opacity="0.4"/>
<circle cx="308.5" cy="668.5" r="1.5" fill="#FDF8F5" fill-opacity="0.4"/>
<circle cx="331.5" cy="668.5" r="1.5" fill="#FDF8F5" fill-opacity="0.4"/>
<circle cx="354.5" cy="668.5" r="1.5" fill="#FDF8F5" fill-opacity="0.4"/>
</g>
<defs>
<clipPath id="clip0_205_9281">
<rect width="360" height="680" fill="white"/>
</clipPath>
</defs>
</svg>
