<svg width="686" height="126" viewBox="0 0 686 126" fill="none" xmlns="http://www.w3.org/2000/svg">
<path fill-rule="evenodd" clip-rule="evenodd" d="M675.421 98.691C674.686 99.2537 673.882 99.7486 673.028 100.173C670.611 101.374 667.792 102.008 664.973 102.008C658.007 102.008 653.861 97.8617 653.861 90.2326V53.911H676.085V34.0088H653.861V12.2823H627.988V34.0088H614.222V53.911H627.988V90.5643C627.988 111.793 640.261 122.574 661.324 122.574C669.285 122.574 677.08 120.749 682.387 116.935L675.421 98.691ZM625.224 56.6752V90.5643C625.224 101.712 628.46 110.535 634.866 116.546C641.243 122.528 650.351 125.338 661.324 125.338C669.617 125.338 678.056 123.452 684.001 119.179L685.729 117.937L676.683 94.2463L673.742 96.4952C671.471 98.2318 668.27 99.2438 664.973 99.2438C662.041 99.2438 660.061 98.3842 658.8 97.0687C657.524 95.7373 656.625 93.5629 656.625 90.2326V56.6752H678.849V31.2446H656.625V9.51807H625.224V31.2446H611.458V56.6752H625.224Z" fill="#FDF8F5" fill-opacity="0.2"/>
<path fill-rule="evenodd" clip-rule="evenodd" d="M518.919 76.6324C518.919 103.5 539.65 122.573 568.674 122.573C587.416 122.573 602.177 114.281 608.645 100.017L588.578 89.0718C583.768 97.6961 576.635 101.344 568.509 101.344C555.406 101.344 545.124 92.2224 545.124 76.6324C545.124 61.0423 555.406 51.9205 568.509 51.9205C576.635 51.9205 583.767 55.735 588.577 64.1935L608.645 53.4131C602.177 38.8182 587.416 30.6914 568.674 30.6914C539.65 30.6914 518.919 49.7644 518.919 76.6324ZM612.21 54.6357L587.508 67.9056L586.174 65.5598C581.84 57.9385 575.611 54.6846 568.509 54.6846C562.608 54.6846 557.495 56.7293 553.862 60.3799C550.238 64.0219 547.888 69.4643 547.888 76.6324C547.888 83.8004 550.238 89.2428 553.862 92.8848C557.495 96.5354 562.608 98.5801 568.509 98.5801C575.639 98.5801 581.844 95.4685 586.163 87.7249L587.496 85.3333L612.223 98.8204L611.162 101.159C604.144 116.636 588.229 125.337 568.674 125.337C538.338 125.337 516.155 105.233 516.155 76.6324C516.155 48.0316 538.338 27.9272 568.674 27.9272C588.216 27.9272 604.153 36.4557 611.172 52.2931L612.21 54.6357Z" fill="#FDF8F5" fill-opacity="0.2"/>
<path fill-rule="evenodd" clip-rule="evenodd" d="M501.165 70.33C501.165 43.2962 485.409 30.6914 458.209 30.6914C443.946 30.6914 429.517 34.506 419.732 41.4718L429.019 59.5496C429.736 58.9798 430.494 58.4344 431.287 57.9151C437.652 53.7484 446.321 51.2571 454.726 51.2571C467.459 51.2571 474.096 56.66 475.144 66.0731C475.243 66.9594 475.292 67.8812 475.292 68.8373H454.726C427.527 68.8373 416.415 79.7835 416.415 95.5395C416.415 110.964 428.853 122.573 449.751 122.573C460.677 122.573 468.95 119.575 474.186 113.866C475.229 112.729 476.152 111.484 476.95 110.134V121.246H501.165V70.33ZM474.186 117.721V124.011H503.929V70.33C503.929 56.2696 499.814 45.5067 491.724 38.308C483.693 31.1612 472.186 27.9272 458.209 27.9272C443.536 27.9272 428.501 31.8365 418.129 39.2199L416.18 40.6072L428.101 63.8108L430.739 61.7135C436.648 57.0169 445.801 54.0212 454.726 54.0212C461.312 54.0212 465.692 55.5542 468.403 57.951C470.537 59.8381 471.907 62.5021 472.361 66.0731H454.726C440.82 66.0731 430.548 68.861 423.696 74.081C416.721 79.3941 413.65 86.9479 413.65 95.5395C413.65 104.045 417.103 111.584 423.463 116.953C429.79 122.294 438.803 125.337 449.751 125.337C459.933 125.337 468.309 122.826 474.186 117.721ZM475.292 93.0517C472.307 101.178 464.843 105.159 456.219 105.159C447.097 105.159 441.624 100.847 441.624 94.3785C441.624 88.4078 445.439 83.9298 457.546 83.9298H475.292V93.0517ZM472.528 92.5406C469.933 99.0312 463.816 102.395 456.219 102.395C452.057 102.395 449.053 101.407 447.162 99.9851C445.348 98.621 444.388 96.7444 444.388 94.3785C444.388 92.034 445.098 90.3408 446.712 89.1198C448.482 87.7815 451.748 86.694 457.546 86.694H472.528V92.5406Z" fill="#FDF8F5" fill-opacity="0.2"/>
<path fill-rule="evenodd" clip-rule="evenodd" d="M400.729 98.6913C399.993 99.2539 399.19 99.7488 398.336 100.173C395.919 101.374 393.099 102.008 390.28 102.008C383.315 102.008 379.168 97.862 379.168 90.2328V53.9113H401.392V34.0091H379.168V12.2825H353.296V34.0091H339.53V53.9113H353.296V90.5645C353.296 111.794 365.569 122.574 386.632 122.574C394.593 122.574 402.388 120.75 407.695 116.935L400.729 98.6913ZM350.531 56.6755V90.5645C350.531 101.712 353.767 110.536 360.174 116.546C366.55 122.529 375.659 125.338 386.632 125.338C394.924 125.338 403.364 123.452 409.308 119.179L411.036 117.937L401.991 94.2466L399.05 96.4955C396.779 98.2321 393.577 99.2441 390.28 99.2441C387.348 99.2441 385.369 98.3844 384.108 97.0689C382.832 95.7375 381.933 93.5632 381.933 90.2328V56.6755H404.157V31.2449H381.933V9.51831H350.531V31.2449H336.766V56.6755H350.531Z" fill="#FDF8F5" fill-opacity="0.2"/>
<path fill-rule="evenodd" clip-rule="evenodd" d="M326.692 70.1641C326.692 42.9645 310.77 30.6914 289.707 30.6914C279.109 30.6914 269.782 33.8683 262.95 39.7772C261.977 40.6187 261.054 41.5158 260.186 42.4669V32.0182H235.474V121.246H261.347V77.1299C261.347 60.7106 270.303 53.0814 282.741 53.0814C294.185 53.0814 300.819 59.7155 300.819 74.1446V121.246H326.692V70.1641ZM262.95 36.2211V29.2541H232.709V124.011H264.111V77.1299C264.111 69.4106 266.209 64.1651 269.375 60.8608C272.531 57.5667 277.089 55.8456 282.741 55.8456C287.926 55.8456 291.591 57.3319 294.009 60.0424C296.478 62.8089 298.055 67.3033 298.055 74.1446V124.011H329.456V70.1641C329.456 56.0201 325.304 45.3647 318.031 38.2518C310.775 31.1547 300.763 27.9272 289.707 27.9272C279.443 27.9272 270.143 30.7674 262.95 36.2211Z" fill="#FDF8F5" fill-opacity="0.2"/>
<path fill-rule="evenodd" clip-rule="evenodd" d="M120.161 76.6324C120.161 103.5 140.893 122.573 169.253 122.573C197.614 122.573 218.18 103.5 218.18 76.6324C218.18 49.7644 197.614 30.6914 169.253 30.6914C140.893 30.6914 120.161 49.7644 120.161 76.6324ZM191.975 76.6324C191.975 92.0566 182.19 101.344 169.253 101.344C156.317 101.344 146.366 92.0566 146.366 76.6324C146.366 61.2081 156.317 51.9205 169.253 51.9205C182.19 51.9205 191.975 61.2081 191.975 76.6324ZM169.253 125.337C139.555 125.337 117.397 105.209 117.397 76.6324C117.397 48.0553 139.555 27.9272 169.253 27.9272C198.964 27.9272 220.944 48.0672 220.944 76.6324C220.944 105.198 198.964 125.337 169.253 125.337ZM183.467 92.8622C186.963 89.2057 189.211 83.7505 189.211 76.6324C189.211 69.5143 186.963 64.059 183.467 60.4026C179.974 56.7492 175.041 54.6846 169.253 54.6846C163.463 54.6846 158.483 56.7513 154.947 60.4127C151.411 64.0736 149.13 69.5273 149.13 76.6324C149.13 83.7374 151.411 89.1911 154.947 92.8521C158.483 96.5134 163.463 98.5801 169.253 98.5801C175.041 98.5801 179.974 96.5155 183.467 92.8622Z" fill="#FDF8F5" fill-opacity="0.2"/>
<path fill-rule="evenodd" clip-rule="evenodd" d="M117.349 23.9826L96.0881 43.6082L94.2195 41.4614C86.9212 33.0761 77.8826 28.8109 67.1146 28.8109C56.9147 28.8109 48.3506 32.3818 42.3433 38.3701C36.3373 44.3572 32.7281 52.919 32.7281 63.1975C32.7281 73.4761 36.3373 82.0378 42.3433 88.0249C48.3506 94.0133 56.9147 97.5841 67.1146 97.5841C77.878 97.5841 86.9081 93.3236 94.2031 84.7869L96.069 82.6034L117.338 102.236L115.696 104.25C104.139 118.434 86.5405 126 65.622 126C28.2458 126 0 99.8554 0 63.1975C0 26.5349 28.2507 0.39502 65.7878 0.39502C86.5427 0.39502 104.132 7.96157 115.685 21.9657L117.349 23.9826ZM113.553 102.504C102.607 115.938 85.8559 123.236 65.622 123.236C29.6322 123.236 2.76419 98.1922 2.76419 63.1975C2.76419 28.2028 29.6322 3.15921 65.7878 3.15921C85.8559 3.15921 102.607 10.4567 113.553 23.7248L96.3046 39.6466C95.6919 38.9428 95.0671 38.2656 94.43 37.6152C86.9603 29.9894 77.8119 26.0468 67.1146 26.0468C45.3881 26.0468 29.9639 41.3051 29.9639 63.1975C29.9639 85.09 45.3881 100.348 67.1146 100.348C77.8207 100.348 86.9753 96.3992 94.4484 88.631C95.0791 87.9754 95.6979 87.2926 96.3046 86.5826L113.553 102.504Z" fill="#FDF8F5" fill-opacity="0.2"/>
</svg>
