<svg width="718" height="132" viewBox="0 0 718 132" fill="none" xmlns="http://www.w3.org/2000/svg">
<g clip-path="url(#clip0_470_1400)">
<g clip-path="url(#clip1_470_1400)">
<circle cx="716.5" cy="9.5" r="1.5" transform="rotate(90 716.5 9.5)" fill="#FAD4C3"/>
<circle cx="716.5" cy="32.5" r="1.5" transform="rotate(90 716.5 32.5)" fill="#FAD4C3"/>
<circle cx="716.5" cy="55.5" r="1.5" transform="rotate(90 716.5 55.5)" fill="#FAD4C3"/>
<circle cx="716.5" cy="78.5" r="1.5" transform="rotate(90 716.5 78.5)" fill="#FAD4C3"/>
<circle cx="716.5" cy="101.5" r="1.5" transform="rotate(90 716.5 101.5)" fill="#FAD4C3"/>
<circle cx="716.5" cy="124.5" r="1.5" transform="rotate(90 716.5 124.5)" fill="#FAD4C3"/>
</g>
<g clip-path="url(#clip2_470_1400)">
<circle cx="693.5" cy="9.5" r="1.5" transform="rotate(90 693.5 9.5)" fill="#FAD4C3"/>
<circle cx="693.5" cy="32.5" r="1.5" transform="rotate(90 693.5 32.5)" fill="#FAD4C3"/>
<circle cx="693.5" cy="55.5" r="1.5" transform="rotate(90 693.5 55.5)" fill="#FAD4C3"/>
<circle cx="693.5" cy="78.5" r="1.5" transform="rotate(90 693.5 78.5)" fill="#FAD4C3"/>
<circle cx="693.5" cy="101.5" r="1.5" transform="rotate(90 693.5 101.5)" fill="#FAD4C3"/>
<circle cx="693.5" cy="124.5" r="1.5" transform="rotate(90 693.5 124.5)" fill="#FAD4C3"/>
</g>
<g clip-path="url(#clip3_470_1400)">
<circle cx="670.5" cy="9.5" r="1.5" transform="rotate(90 670.5 9.5)" fill="#FAD4C3"/>
<circle cx="670.5" cy="32.5" r="1.5" transform="rotate(90 670.5 32.5)" fill="#FAD4C3"/>
<circle cx="670.5" cy="55.5" r="1.5" transform="rotate(90 670.5 55.5)" fill="#FAD4C3"/>
<circle cx="670.5" cy="78.5" r="1.5" transform="rotate(90 670.5 78.5)" fill="#FAD4C3"/>
<circle cx="670.5" cy="101.5" r="1.5" transform="rotate(90 670.5 101.5)" fill="#FAD4C3"/>
<circle cx="670.5" cy="124.5" r="1.5" transform="rotate(90 670.5 124.5)" fill="#FAD4C3"/>
</g>
<g clip-path="url(#clip4_470_1400)">
<circle cx="647.5" cy="9.5" r="1.5" transform="rotate(90 647.5 9.5)" fill="#FAD4C3"/>
<circle cx="647.5" cy="32.5" r="1.5" transform="rotate(90 647.5 32.5)" fill="#FAD4C3"/>
<circle cx="647.5" cy="55.5" r="1.5" transform="rotate(90 647.5 55.5)" fill="#FAD4C3"/>
<circle cx="647.5" cy="78.5" r="1.5" transform="rotate(90 647.5 78.5)" fill="#FAD4C3"/>
<circle cx="647.5" cy="101.5" r="1.5" transform="rotate(90 647.5 101.5)" fill="#FAD4C3"/>
<circle cx="647.5" cy="124.5" r="1.5" transform="rotate(90 647.5 124.5)" fill="#FAD4C3"/>
</g>
<g clip-path="url(#clip5_470_1400)">
<circle cx="624.5" cy="9.5" r="1.5" transform="rotate(90 624.5 9.5)" fill="#FAD4C3"/>
<circle cx="624.5" cy="32.5" r="1.5" transform="rotate(90 624.5 32.5)" fill="#FAD4C3"/>
<circle cx="624.5" cy="55.5" r="1.5" transform="rotate(90 624.5 55.5)" fill="#FAD4C3"/>
<circle cx="624.5" cy="78.5" r="1.5" transform="rotate(90 624.5 78.5)" fill="#FAD4C3"/>
<circle cx="624.5" cy="101.5" r="1.5" transform="rotate(90 624.5 101.5)" fill="#FAD4C3"/>
<circle cx="624.5" cy="124.5" r="1.5" transform="rotate(90 624.5 124.5)" fill="#FAD4C3"/>
</g>
<g clip-path="url(#clip6_470_1400)">
<circle cx="601.5" cy="9.5" r="1.5" transform="rotate(90 601.5 9.5)" fill="#FAD4C3"/>
<circle cx="601.5" cy="32.5" r="1.5" transform="rotate(90 601.5 32.5)" fill="#FAD4C3"/>
<circle cx="601.5" cy="55.5" r="1.5" transform="rotate(90 601.5 55.5)" fill="#FAD4C3"/>
<circle cx="601.5" cy="78.5" r="1.5" transform="rotate(90 601.5 78.5)" fill="#FAD4C3"/>
<circle cx="601.5" cy="101.5" r="1.5" transform="rotate(90 601.5 101.5)" fill="#FAD4C3"/>
<circle cx="601.5" cy="124.5" r="1.5" transform="rotate(90 601.5 124.5)" fill="#FAD4C3"/>
</g>
<g clip-path="url(#clip7_470_1400)">
<circle cx="578.5" cy="9.5" r="1.5" transform="rotate(90 578.5 9.5)" fill="#FAD4C3"/>
<circle cx="578.5" cy="32.5" r="1.5" transform="rotate(90 578.5 32.5)" fill="#FAD4C3"/>
<circle cx="578.5" cy="55.5" r="1.5" transform="rotate(90 578.5 55.5)" fill="#FAD4C3"/>
<circle cx="578.5" cy="78.5" r="1.5" transform="rotate(90 578.5 78.5)" fill="#FAD4C3"/>
<circle cx="578.5" cy="101.5" r="1.5" transform="rotate(90 578.5 101.5)" fill="#FAD4C3"/>
<circle cx="578.5" cy="124.5" r="1.5" transform="rotate(90 578.5 124.5)" fill="#FAD4C3"/>
</g>
<g clip-path="url(#clip8_470_1400)">
<circle cx="555.5" cy="9.5" r="1.5" transform="rotate(90 555.5 9.5)" fill="#FAD4C3"/>
<circle cx="555.5" cy="32.5" r="1.5" transform="rotate(90 555.5 32.5)" fill="#FAD4C3"/>
<circle cx="555.5" cy="55.5" r="1.5" transform="rotate(90 555.5 55.5)" fill="#FAD4C3"/>
<circle cx="555.5" cy="78.5" r="1.5" transform="rotate(90 555.5 78.5)" fill="#FAD4C3"/>
<circle cx="555.5" cy="101.5" r="1.5" transform="rotate(90 555.5 101.5)" fill="#FAD4C3"/>
<circle cx="555.5" cy="124.5" r="1.5" transform="rotate(90 555.5 124.5)" fill="#FAD4C3"/>
</g>
<g clip-path="url(#clip9_470_1400)">
<circle cx="532.5" cy="9.5" r="1.5" transform="rotate(90 532.5 9.5)" fill="#FAD4C3"/>
<circle cx="532.5" cy="32.5" r="1.5" transform="rotate(90 532.5 32.5)" fill="#FAD4C3"/>
<circle cx="532.5" cy="55.5" r="1.5" transform="rotate(90 532.5 55.5)" fill="#FAD4C3"/>
<circle cx="532.5" cy="78.5" r="1.5" transform="rotate(90 532.5 78.5)" fill="#FAD4C3"/>
<circle cx="532.5" cy="101.5" r="1.5" transform="rotate(90 532.5 101.5)" fill="#FAD4C3"/>
<circle cx="532.5" cy="124.5" r="1.5" transform="rotate(90 532.5 124.5)" fill="#FAD4C3"/>
</g>
<g clip-path="url(#clip10_470_1400)">
<circle cx="509.5" cy="9.5" r="1.5" transform="rotate(90 509.5 9.5)" fill="#FAD4C3"/>
<circle cx="509.5" cy="32.5" r="1.5" transform="rotate(90 509.5 32.5)" fill="#FAD4C3"/>
<circle cx="509.5" cy="55.5" r="1.5" transform="rotate(90 509.5 55.5)" fill="#FAD4C3"/>
<circle cx="509.5" cy="78.5" r="1.5" transform="rotate(90 509.5 78.5)" fill="#FAD4C3"/>
<circle cx="509.5" cy="101.5" r="1.5" transform="rotate(90 509.5 101.5)" fill="#FAD4C3"/>
<circle cx="509.5" cy="124.5" r="1.5" transform="rotate(90 509.5 124.5)" fill="#FAD4C3"/>
</g>
<g clip-path="url(#clip11_470_1400)">
<circle cx="486.5" cy="9.5" r="1.5" transform="rotate(90 486.5 9.5)" fill="#FAD4C3"/>
<circle cx="486.5" cy="32.5" r="1.5" transform="rotate(90 486.5 32.5)" fill="#FAD4C3"/>
<circle cx="486.5" cy="55.5" r="1.5" transform="rotate(90 486.5 55.5)" fill="#FAD4C3"/>
<circle cx="486.5" cy="78.5" r="1.5" transform="rotate(90 486.5 78.5)" fill="#FAD4C3"/>
<circle cx="486.5" cy="101.5" r="1.5" transform="rotate(90 486.5 101.5)" fill="#FAD4C3"/>
<circle cx="486.5" cy="124.5" r="1.5" transform="rotate(90 486.5 124.5)" fill="#FAD4C3"/>
</g>
<g clip-path="url(#clip12_470_1400)">
<circle cx="463.5" cy="9.5" r="1.5" transform="rotate(90 463.5 9.5)" fill="#FAD4C3"/>
<circle cx="463.5" cy="32.5" r="1.5" transform="rotate(90 463.5 32.5)" fill="#FAD4C3"/>
<circle cx="463.5" cy="55.5" r="1.5" transform="rotate(90 463.5 55.5)" fill="#FAD4C3"/>
<circle cx="463.5" cy="78.5" r="1.5" transform="rotate(90 463.5 78.5)" fill="#FAD4C3"/>
<circle cx="463.5" cy="101.5" r="1.5" transform="rotate(90 463.5 101.5)" fill="#FAD4C3"/>
<circle cx="463.5" cy="124.5" r="1.5" transform="rotate(90 463.5 124.5)" fill="#FAD4C3"/>
</g>
<g clip-path="url(#clip13_470_1400)">
<circle cx="440.5" cy="9.5" r="1.5" transform="rotate(90 440.5 9.5)" fill="#FAD4C3"/>
<circle cx="440.5" cy="32.5" r="1.5" transform="rotate(90 440.5 32.5)" fill="#FAD4C3"/>
<circle cx="440.5" cy="55.5" r="1.5" transform="rotate(90 440.5 55.5)" fill="#FAD4C3"/>
<circle cx="440.5" cy="78.5" r="1.5" transform="rotate(90 440.5 78.5)" fill="#FAD4C3"/>
<circle cx="440.5" cy="101.5" r="1.5" transform="rotate(90 440.5 101.5)" fill="#FAD4C3"/>
<circle cx="440.5" cy="124.5" r="1.5" transform="rotate(90 440.5 124.5)" fill="#FAD4C3"/>
</g>
<g clip-path="url(#clip14_470_1400)">
<circle cx="417.5" cy="9.5" r="1.5" transform="rotate(90 417.5 9.5)" fill="#FAD4C3"/>
<circle cx="417.5" cy="32.5" r="1.5" transform="rotate(90 417.5 32.5)" fill="#FAD4C3"/>
<circle cx="417.5" cy="55.5" r="1.5" transform="rotate(90 417.5 55.5)" fill="#FAD4C3"/>
<circle cx="417.5" cy="78.5" r="1.5" transform="rotate(90 417.5 78.5)" fill="#FAD4C3"/>
<circle cx="417.5" cy="101.5" r="1.5" transform="rotate(90 417.5 101.5)" fill="#FAD4C3"/>
<circle cx="417.5" cy="124.5" r="1.5" transform="rotate(90 417.5 124.5)" fill="#FAD4C3"/>
</g>
<g clip-path="url(#clip15_470_1400)">
<circle cx="394.5" cy="9.5" r="1.5" transform="rotate(90 394.5 9.5)" fill="#FAD4C3"/>
<circle cx="394.5" cy="32.5" r="1.5" transform="rotate(90 394.5 32.5)" fill="#FAD4C3"/>
<circle cx="394.5" cy="55.5" r="1.5" transform="rotate(90 394.5 55.5)" fill="#FAD4C3"/>
<circle cx="394.5" cy="78.5" r="1.5" transform="rotate(90 394.5 78.5)" fill="#FAD4C3"/>
<circle cx="394.5" cy="101.5" r="1.5" transform="rotate(90 394.5 101.5)" fill="#FAD4C3"/>
<circle cx="394.5" cy="124.5" r="1.5" transform="rotate(90 394.5 124.5)" fill="#FAD4C3"/>
</g>
<g clip-path="url(#clip16_470_1400)">
<circle cx="371.5" cy="9.5" r="1.5" transform="rotate(90 371.5 9.5)" fill="#FAD4C3"/>
<circle cx="371.5" cy="32.5" r="1.5" transform="rotate(90 371.5 32.5)" fill="#FAD4C3"/>
<circle cx="371.5" cy="55.5" r="1.5" transform="rotate(90 371.5 55.5)" fill="#FAD4C3"/>
<circle cx="371.5" cy="78.5" r="1.5" transform="rotate(90 371.5 78.5)" fill="#FAD4C3"/>
<circle cx="371.5" cy="101.5" r="1.5" transform="rotate(90 371.5 101.5)" fill="#FAD4C3"/>
<circle cx="371.5" cy="124.5" r="1.5" transform="rotate(90 371.5 124.5)" fill="#FAD4C3"/>
</g>
<g clip-path="url(#clip17_470_1400)">
<circle cx="348.5" cy="9.5" r="1.5" transform="rotate(90 348.5 9.5)" fill="#FAD4C3"/>
<circle cx="348.5" cy="32.5" r="1.5" transform="rotate(90 348.5 32.5)" fill="#FAD4C3"/>
<circle cx="348.5" cy="55.5" r="1.5" transform="rotate(90 348.5 55.5)" fill="#FAD4C3"/>
<circle cx="348.5" cy="78.5" r="1.5" transform="rotate(90 348.5 78.5)" fill="#FAD4C3"/>
<circle cx="348.5" cy="101.5" r="1.5" transform="rotate(90 348.5 101.5)" fill="#FAD4C3"/>
<circle cx="348.5" cy="124.5" r="1.5" transform="rotate(90 348.5 124.5)" fill="#FAD4C3"/>
</g>
<g clip-path="url(#clip18_470_1400)">
<circle cx="325.5" cy="9.5" r="1.5" transform="rotate(90 325.5 9.5)" fill="#FAD4C3"/>
<circle cx="325.5" cy="32.5" r="1.5" transform="rotate(90 325.5 32.5)" fill="#FAD4C3"/>
<circle cx="325.5" cy="55.5" r="1.5" transform="rotate(90 325.5 55.5)" fill="#FAD4C3"/>
<circle cx="325.5" cy="78.5" r="1.5" transform="rotate(90 325.5 78.5)" fill="#FAD4C3"/>
<circle cx="325.5" cy="101.5" r="1.5" transform="rotate(90 325.5 101.5)" fill="#FAD4C3"/>
<circle cx="325.5" cy="124.5" r="1.5" transform="rotate(90 325.5 124.5)" fill="#FAD4C3"/>
</g>
<g clip-path="url(#clip19_470_1400)">
<circle cx="302.5" cy="9.5" r="1.5" transform="rotate(90 302.5 9.5)" fill="#FAD4C3"/>
<circle cx="302.5" cy="32.5" r="1.5" transform="rotate(90 302.5 32.5)" fill="#FAD4C3"/>
<circle cx="302.5" cy="55.5" r="1.5" transform="rotate(90 302.5 55.5)" fill="#FAD4C3"/>
<circle cx="302.5" cy="78.5" r="1.5" transform="rotate(90 302.5 78.5)" fill="#FAD4C3"/>
<circle cx="302.5" cy="101.5" r="1.5" transform="rotate(90 302.5 101.5)" fill="#FAD4C3"/>
<circle cx="302.5" cy="124.5" r="1.5" transform="rotate(90 302.5 124.5)" fill="#FAD4C3"/>
</g>
<g clip-path="url(#clip20_470_1400)">
<circle cx="279.5" cy="9.5" r="1.5" transform="rotate(90 279.5 9.5)" fill="#FAD4C3"/>
<circle cx="279.5" cy="32.5" r="1.5" transform="rotate(90 279.5 32.5)" fill="#FAD4C3"/>
<circle cx="279.5" cy="55.5" r="1.5" transform="rotate(90 279.5 55.5)" fill="#FAD4C3"/>
<circle cx="279.5" cy="78.5" r="1.5" transform="rotate(90 279.5 78.5)" fill="#FAD4C3"/>
<circle cx="279.5" cy="101.5" r="1.5" transform="rotate(90 279.5 101.5)" fill="#FAD4C3"/>
<circle cx="279.5" cy="124.5" r="1.5" transform="rotate(90 279.5 124.5)" fill="#FAD4C3"/>
</g>
<g clip-path="url(#clip21_470_1400)">
<circle cx="256.5" cy="9.5" r="1.5" transform="rotate(90 256.5 9.5)" fill="#FAD4C3"/>
<circle cx="256.5" cy="32.5" r="1.5" transform="rotate(90 256.5 32.5)" fill="#FAD4C3"/>
<circle cx="256.5" cy="55.5" r="1.5" transform="rotate(90 256.5 55.5)" fill="#FAD4C3"/>
<circle cx="256.5" cy="78.5" r="1.5" transform="rotate(90 256.5 78.5)" fill="#FAD4C3"/>
<circle cx="256.5" cy="101.5" r="1.5" transform="rotate(90 256.5 101.5)" fill="#FAD4C3"/>
<circle cx="256.5" cy="124.5" r="1.5" transform="rotate(90 256.5 124.5)" fill="#FAD4C3"/>
</g>
<g clip-path="url(#clip22_470_1400)">
<circle cx="233.5" cy="9.5" r="1.5" transform="rotate(90 233.5 9.5)" fill="#FAD4C3"/>
<circle cx="233.5" cy="32.5" r="1.5" transform="rotate(90 233.5 32.5)" fill="#FAD4C3"/>
<circle cx="233.5" cy="55.5" r="1.5" transform="rotate(90 233.5 55.5)" fill="#FAD4C3"/>
<circle cx="233.5" cy="78.5" r="1.5" transform="rotate(90 233.5 78.5)" fill="#FAD4C3"/>
<circle cx="233.5" cy="101.5" r="1.5" transform="rotate(90 233.5 101.5)" fill="#FAD4C3"/>
<circle cx="233.5" cy="124.5" r="1.5" transform="rotate(90 233.5 124.5)" fill="#FAD4C3"/>
</g>
<g clip-path="url(#clip23_470_1400)">
<circle cx="210.5" cy="9.5" r="1.5" transform="rotate(90 210.5 9.5)" fill="#FAD4C3"/>
<circle cx="210.5" cy="32.5" r="1.5" transform="rotate(90 210.5 32.5)" fill="#FAD4C3"/>
<circle cx="210.5" cy="55.5" r="1.5" transform="rotate(90 210.5 55.5)" fill="#FAD4C3"/>
<circle cx="210.5" cy="78.5" r="1.5" transform="rotate(90 210.5 78.5)" fill="#FAD4C3"/>
<circle cx="210.5" cy="101.5" r="1.5" transform="rotate(90 210.5 101.5)" fill="#FAD4C3"/>
<circle cx="210.5" cy="124.5" r="1.5" transform="rotate(90 210.5 124.5)" fill="#FAD4C3"/>
</g>
<g clip-path="url(#clip24_470_1400)">
<circle cx="187.5" cy="9.5" r="1.5" transform="rotate(90 187.5 9.5)" fill="#FAD4C3"/>
<circle cx="187.5" cy="32.5" r="1.5" transform="rotate(90 187.5 32.5)" fill="#FAD4C3"/>
<circle cx="187.5" cy="55.5" r="1.5" transform="rotate(90 187.5 55.5)" fill="#FAD4C3"/>
<circle cx="187.5" cy="78.5" r="1.5" transform="rotate(90 187.5 78.5)" fill="#FAD4C3"/>
<circle cx="187.5" cy="101.5" r="1.5" transform="rotate(90 187.5 101.5)" fill="#FAD4C3"/>
<circle cx="187.5" cy="124.5" r="1.5" transform="rotate(90 187.5 124.5)" fill="#FAD4C3"/>
</g>
<g clip-path="url(#clip25_470_1400)">
<circle cx="164.5" cy="9.5" r="1.5" transform="rotate(90 164.5 9.5)" fill="#FAD4C3"/>
<circle cx="164.5" cy="32.5" r="1.5" transform="rotate(90 164.5 32.5)" fill="#FAD4C3"/>
<circle cx="164.5" cy="55.5" r="1.5" transform="rotate(90 164.5 55.5)" fill="#FAD4C3"/>
<circle cx="164.5" cy="78.5" r="1.5" transform="rotate(90 164.5 78.5)" fill="#FAD4C3"/>
<circle cx="164.5" cy="101.5" r="1.5" transform="rotate(90 164.5 101.5)" fill="#FAD4C3"/>
<circle cx="164.5" cy="124.5" r="1.5" transform="rotate(90 164.5 124.5)" fill="#FAD4C3"/>
</g>
<g clip-path="url(#clip26_470_1400)">
<circle cx="141.5" cy="9.5" r="1.5" transform="rotate(90 141.5 9.5)" fill="#FAD4C3"/>
<circle cx="141.5" cy="32.5" r="1.5" transform="rotate(90 141.5 32.5)" fill="#FAD4C3"/>
<circle cx="141.5" cy="55.5" r="1.5" transform="rotate(90 141.5 55.5)" fill="#FAD4C3"/>
<circle cx="141.5" cy="78.5" r="1.5" transform="rotate(90 141.5 78.5)" fill="#FAD4C3"/>
<circle cx="141.5" cy="101.5" r="1.5" transform="rotate(90 141.5 101.5)" fill="#FAD4C3"/>
<circle cx="141.5" cy="124.5" r="1.5" transform="rotate(90 141.5 124.5)" fill="#FAD4C3"/>
</g>
<g clip-path="url(#clip27_470_1400)">
<circle cx="118.5" cy="9.5" r="1.5" transform="rotate(90 118.5 9.5)" fill="#FAD4C3"/>
<circle cx="118.5" cy="32.5" r="1.5" transform="rotate(90 118.5 32.5)" fill="#FAD4C3"/>
<circle cx="118.5" cy="55.5" r="1.5" transform="rotate(90 118.5 55.5)" fill="#FAD4C3"/>
<circle cx="118.5" cy="78.5" r="1.5" transform="rotate(90 118.5 78.5)" fill="#FAD4C3"/>
<circle cx="118.5" cy="101.5" r="1.5" transform="rotate(90 118.5 101.5)" fill="#FAD4C3"/>
<circle cx="118.5" cy="124.5" r="1.5" transform="rotate(90 118.5 124.5)" fill="#FAD4C3"/>
</g>
<g clip-path="url(#clip28_470_1400)">
<circle cx="95.5" cy="9.5" r="1.5" transform="rotate(90 95.5 9.5)" fill="#FAD4C3"/>
<circle cx="95.5" cy="32.5" r="1.5" transform="rotate(90 95.5 32.5)" fill="#FAD4C3"/>
<circle cx="95.5" cy="55.5" r="1.5" transform="rotate(90 95.5 55.5)" fill="#FAD4C3"/>
<circle cx="95.5" cy="78.5" r="1.5" transform="rotate(90 95.5 78.5)" fill="#FAD4C3"/>
<circle cx="95.5" cy="101.5" r="1.5" transform="rotate(90 95.5 101.5)" fill="#FAD4C3"/>
<circle cx="95.5" cy="124.5" r="1.5" transform="rotate(90 95.5 124.5)" fill="#FAD4C3"/>
</g>
<g clip-path="url(#clip29_470_1400)">
<circle cx="72.5" cy="9.5" r="1.5" transform="rotate(90 72.5 9.5)" fill="#FAD4C3"/>
<circle cx="72.5" cy="32.5" r="1.5" transform="rotate(90 72.5 32.5)" fill="#FAD4C3"/>
<circle cx="72.5" cy="55.5" r="1.5" transform="rotate(90 72.5 55.5)" fill="#FAD4C3"/>
<circle cx="72.5" cy="78.5" r="1.5" transform="rotate(90 72.5 78.5)" fill="#FAD4C3"/>
<circle cx="72.5" cy="101.5" r="1.5" transform="rotate(90 72.5 101.5)" fill="#FAD4C3"/>
<circle cx="72.5" cy="124.5" r="1.5" transform="rotate(90 72.5 124.5)" fill="#FAD4C3"/>
</g>
<g clip-path="url(#clip30_470_1400)">
<circle cx="49.5" cy="9.5" r="1.5" transform="rotate(90 49.5 9.5)" fill="#FAD4C3"/>
<circle cx="49.5" cy="32.5" r="1.5" transform="rotate(90 49.5 32.5)" fill="#FAD4C3"/>
<circle cx="49.5" cy="55.5" r="1.5" transform="rotate(90 49.5 55.5)" fill="#FAD4C3"/>
<circle cx="49.5" cy="78.5" r="1.5" transform="rotate(90 49.5 78.5)" fill="#FAD4C3"/>
<circle cx="49.5" cy="101.5" r="1.5" transform="rotate(90 49.5 101.5)" fill="#FAD4C3"/>
<circle cx="49.5" cy="124.5" r="1.5" transform="rotate(90 49.5 124.5)" fill="#FAD4C3"/>
</g>
</g>
<defs>
<clipPath id="clip0_470_1400">
<rect width="132" height="718" fill="white" transform="translate(718) rotate(90)"/>
</clipPath>
<clipPath id="clip1_470_1400">
<rect width="720" height="23" fill="white" transform="translate(718 -360) rotate(90)"/>
</clipPath>
<clipPath id="clip2_470_1400">
<rect width="720" height="23" fill="white" transform="translate(695 -360) rotate(90)"/>
</clipPath>
<clipPath id="clip3_470_1400">
<rect width="720" height="23" fill="white" transform="translate(672 -360) rotate(90)"/>
</clipPath>
<clipPath id="clip4_470_1400">
<rect width="720" height="23" fill="white" transform="translate(649 -360) rotate(90)"/>
</clipPath>
<clipPath id="clip5_470_1400">
<rect width="720" height="23" fill="white" transform="translate(626 -360) rotate(90)"/>
</clipPath>
<clipPath id="clip6_470_1400">
<rect width="720" height="23" fill="white" transform="translate(603 -360) rotate(90)"/>
</clipPath>
<clipPath id="clip7_470_1400">
<rect width="720" height="23" fill="white" transform="translate(580 -360) rotate(90)"/>
</clipPath>
<clipPath id="clip8_470_1400">
<rect width="720" height="23" fill="white" transform="translate(557 -360) rotate(90)"/>
</clipPath>
<clipPath id="clip9_470_1400">
<rect width="720" height="23" fill="white" transform="translate(534 -360) rotate(90)"/>
</clipPath>
<clipPath id="clip10_470_1400">
<rect width="720" height="23" fill="white" transform="translate(511 -360) rotate(90)"/>
</clipPath>
<clipPath id="clip11_470_1400">
<rect width="720" height="23" fill="white" transform="translate(488 -360) rotate(90)"/>
</clipPath>
<clipPath id="clip12_470_1400">
<rect width="720" height="23" fill="white" transform="translate(465 -360) rotate(90)"/>
</clipPath>
<clipPath id="clip13_470_1400">
<rect width="720" height="23" fill="white" transform="translate(442 -360) rotate(90)"/>
</clipPath>
<clipPath id="clip14_470_1400">
<rect width="720" height="23" fill="white" transform="translate(419 -360) rotate(90)"/>
</clipPath>
<clipPath id="clip15_470_1400">
<rect width="720" height="23" fill="white" transform="translate(396 -360) rotate(90)"/>
</clipPath>
<clipPath id="clip16_470_1400">
<rect width="720" height="23" fill="white" transform="translate(373 -360) rotate(90)"/>
</clipPath>
<clipPath id="clip17_470_1400">
<rect width="720" height="23" fill="white" transform="translate(350 -360) rotate(90)"/>
</clipPath>
<clipPath id="clip18_470_1400">
<rect width="720" height="23" fill="white" transform="translate(327 -360) rotate(90)"/>
</clipPath>
<clipPath id="clip19_470_1400">
<rect width="720" height="23" fill="white" transform="translate(304 -360) rotate(90)"/>
</clipPath>
<clipPath id="clip20_470_1400">
<rect width="720" height="23" fill="white" transform="translate(281 -360) rotate(90)"/>
</clipPath>
<clipPath id="clip21_470_1400">
<rect width="720" height="23" fill="white" transform="translate(258 -360) rotate(90)"/>
</clipPath>
<clipPath id="clip22_470_1400">
<rect width="720" height="23" fill="white" transform="translate(235 -360) rotate(90)"/>
</clipPath>
<clipPath id="clip23_470_1400">
<rect width="720" height="23" fill="white" transform="translate(212 -360) rotate(90)"/>
</clipPath>
<clipPath id="clip24_470_1400">
<rect width="720" height="23" fill="white" transform="translate(189 -360) rotate(90)"/>
</clipPath>
<clipPath id="clip25_470_1400">
<rect width="720" height="23" fill="white" transform="translate(166 -360) rotate(90)"/>
</clipPath>
<clipPath id="clip26_470_1400">
<rect width="720" height="23" fill="white" transform="translate(143 -360) rotate(90)"/>
</clipPath>
<clipPath id="clip27_470_1400">
<rect width="720" height="23" fill="white" transform="translate(120 -360) rotate(90)"/>
</clipPath>
<clipPath id="clip28_470_1400">
<rect width="720" height="23" fill="white" transform="translate(97 -360) rotate(90)"/>
</clipPath>
<clipPath id="clip29_470_1400">
<rect width="720" height="23" fill="white" transform="translate(74 -360) rotate(90)"/>
</clipPath>
<clipPath id="clip30_470_1400">
<rect width="720" height="23" fill="white" transform="translate(51 -360) rotate(90)"/>
</clipPath>
</defs>
</svg>
